# xmcd
#
# Track frame offsets: 
#        150
#        20184
#        40133
#        59704
#        82207
#        102042
#        122602
#        136410
#        156439
#        169265
#        190451
#        207769
#        221121
#        237829
#        254503
#        274786
#
# Disc length: 3859 seconds
#
# Revision: 0
# Processed by: cddbd v1.5.1PL0 Copyright (c) Steve Scherf et al.
# Submitted via: ExactAudioCopy v0.90b4
#
DISCID=f80f1110
DTITLE=Various Artist - Blues Review Sampler - May 2002
DYEAR=2002
DGENRE=Blues
TTITLE0=Let It Rain - W. C. Clark - From Austin With Love
TTITLE1=Blues Overtook Me - Charlie Musselwhite - One Night In America
TTITLE2=Midnight Mademoiselle - The Spikedrivers - Delta Roots
TTITLE3=Hey Big Boy - Kay Kay and The Rays - Texas Justice
TTITLE4=Blues Is My Business - Groove Hogs - Wrong Side Of The Street
TTITLE5=Lazy - Jerry Portnoy - Down In The Mood Room
TTITLE6=Topless - Big Daddy G - Topless
TTITLE7=Swamp Funk Blues - KC Ray - Down The River
TTITLE8=Frankie Doris - Corey Harris - Downhome Sophisticate
TTITLE9=Sweet Long Cool Drink'a Water - Jennifer Lane - Sweet Long Coo
TTITLE9=l Drink'a Water
TTITLE10=Buy Me A Dog - Duke Robillard - Living With The Blues
TTITLE11=Billie Diamond Down - Georgie Bonds - Someimes I Wonder
TTITLE12=Gotta Help Me - D. C. Minner and Selby - I Can Tell
TTITLE13=Livin' A  Lie - Lou Pride - Words of Caution
TTITLE14=No Daddy - Matt Leddy and The Meat Cutters - Prime Cuts
TTITLE15=Just Live Your Life - Otis Taylor - Respect The Dead
EXTD=
EXTT0=
EXTT1=
EXTT2=
EXTT3=
EXTT4=
EXTT5=
EXTT6=
EXTT7=
EXTT8=
EXTT9=
EXTT10=
EXTT11=
EXTT12=
EXTT13=
EXTT14=
EXTT15=
PLAYORDER=
